<svg xmlns="http://www.w3.org/2000/svg" viewBox="0 0 662 110">
  <path fill="none" stroke="currentColor" d="M.5 90.5v-84h13.44v34.2h37.2V6.5h13.44v84H51.14V57.14h-37.2V90.5H.5z"/>
  <path fill="none" stroke="currentColor" d="M145.46 6.5v16.44H94.84V40.1h33.6v16.4h-33.6v17.56h50.64V90.5h-64.1v-84h64.08z"/>
  <path fill="none" stroke="currentColor" d="M197.06 6.5l20.52 42.36 15.6-42.36h16.44l-31 84h-16.4l9.48-25.92L183.62 6.5h13.44z"/>
  <path fill="none" stroke="currentColor" d="M271.58 22.94V90.5h-13.44v-84h50.16v16.44h-36.72z"/>
  <path fill="none" stroke="currentColor" d="M304.94 90.5l28-84h27.12l28.08 84h-13.48l-7.82-23.52h-37.8l-7.78 23.52h-16.32zm56.64-40l-13.44-40.16L334.7 50.5h26.88z"/>
  <path fill="none" stroke="currentColor" d="M394.22 108.74V74.06h7.44c4.56-4.68 7.8-18.36 8.76-56l.36-11.56h48.6v67.56h10v34.68H454.7V90.5h-45.86v18.24h-14.62zm51.72-34.68V22.94h-22.56v3.12c-.48 22.44-3.24 37.68-7.2 48h29.76z"/>
  <path fill="none" stroke="currentColor" d="M475.58 90.5l28-84h27.12l28.04 84H545.3l-7.8-23.52h-37.8l-7.8 23.52h-16.32zm56.64-40l-13.44-40.2-13.44 40.2h26.88z"/>
  <path fill="none" stroke="currentColor" d="M566.54 75.38a13.77 13.77 0 005 1c6.6 0 10.44-6.24 12-58.32l.52-11.56h46.2v84h-13.42V22.94h-20.18l-.12 3.12c-1.56 53.44-9.7 66.84-24.96 66.84a28.55 28.55 0 01-6.72-.84z"/>
  <path fill="none" stroke="currentColor" d="M643.94 68.9L645.38.5h13.46l1.44 68.4h-16.34zm8.28 6.36c4.8 0 8 3.24 8 8.16a8.04 8.04 0 01-16.08 0c.04-4.92 3.28-8.16 8.08-8.16z"/>
</svg>