<svg id="lose-heading" xmlns="http://www.w3.org/2000/svg" viewBox="0 0 662 180">
  <path fill="none" stroke="currentColor" d="M.5 80.39V6.5h13.44v34.2h37.2V6.5h13.44m0 0v84H51.14V57.14h-37.2V90.5m0 0H.5V80.39">
    <animate begin="0s" attributeName="stroke-dashoffset" to="0" dur="1.5s" calcMode="paced" fill="freeze" />
    <animateTransform
      begin="0.2s"
      attributeName="transform"
      type="translate"
      values="0,0;0,70;0,65;0,70"
      dur="0.7s"
      keySplines="0.11, 0, 0.5, 0;0.5, 1, 0.89, 1;0.11, 0, 0.5, 0"
      calcMode="spline"
      fill="freeze"
      additive="sum"
    />
  </path>
  <path fill="none" stroke="currentColor" d="M145.46 6.5v16.44H94.84V40.1h33.6v16.4h-33.6v17.56h9.7m0 0h40.94V90.5h-64.1v-84m0 0h64.08">
    <animate begin="0.1s" attributeName="stroke-dashoffset" to="0" dur="1.5s" calcMode="paced" fill="freeze" />
    <animateTransform
      begin="0.3s"
      attributeName="transform"
      type="translate"
      values="0,0;0,70;0,65;0,70"
      dur="0.7s"
      keySplines="0.11, 0, 0.5, 0;0.5, 1, 0.89, 1;0.11, 0, 0.5, 0"
      calcMode="spline"
      fill="freeze"
      additive="sum"
    />
  </path>
  <path fill="none" stroke="currentColor" d="M197.06 6.5l20.52 42.36 15.6-42.36h16.44m0 0l-31 84h-16.4l9.48-25.92L183.62 6.5m0 0h13.44">
    <animate begin="0.2s" attributeName="stroke-dashoffset" to="0" dur="1.5s" calcMode="paced" fill="freeze" />
    <animateTransform
      begin="0.4s"
      attributeName="transform"
      type="translate"
      values="0,0;0,70;0,65;0,70"
      dur="0.7s"
      keySplines="0.11, 0, 0.5, 0;0.5, 1, 0.89, 1;0.11, 0, 0.5, 0"
      calcMode="spline"
      fill="freeze"
      additive="sum"
    />
  </path>
  <path fill="none" stroke="currentColor" d="M258.14 6.5h50.16v16.44h-8.74m0 0h-27.98V90.5h-13.44v-84">
    <animate begin="0.3s" attributeName="stroke-dashoffset" to="0" dur="1.5s" calcMode="paced" fill="freeze" />
    <animateTransform
      begin="0.5s"
      attributeName="transform"
      type="translate"
      values="0,0;0,70;0,65;0,70"
      dur="0.7s"
      keySplines="0.11, 0, 0.5, 0;0.5, 1, 0.89, 1;0.11, 0, 0.5, 0"
      calcMode="spline"
      fill="freeze"
      additive="sum"
    />
  </path>
  <path fill="none" stroke="currentColor" d="M360.06 6.5l28.08 84h-13.48l-7.82-23.52h-37.8l-7.78 23.52h-7.28m0 0h-9.04l28-84h27.12m-25.36 44h26.88l-13.44-40.16L334.7 50.5">
    <animate begin="0.4s" attributeName="stroke-dashoffset" to="0" dur="1.5s" calcMode="paced" fill="freeze" />
    <animateTransform
      begin="0.6s"
      attributeName="transform"
      type="translate"
      values="0,0;0,70;0,65;0,70"
      dur="0.7s"
      keySplines="0.11, 0, 0.5, 0;0.5, 1, 0.89, 1;0.11, 0, 0.5, 0"
      calcMode="spline"
      fill="freeze"
      additive="sum"
    />
  </path>
  <path fill="none" stroke="currentColor" d="M459.38 6.5v67.56h10v34.68H454.7V90.5h-45.86v18.24m0 0h-14.62V74.06h7.44c4.56-4.68 7.8-18.36 8.76-56l.36-11.56h48.6m-43.2 67.56h29.76V22.94h-22.56v3.12c-.48 22.44-3.24 37.68-7.2 48">
    <animate begin="0.5s" attributeName="stroke-dashoffset" to="0" dur="1.5s" calcMode="paced" fill="freeze" />
    <animateTransform
      begin="0.7s"
      attributeName="transform"
      type="translate"
      values="0,0;0,70;0,65;0,70"
      dur="0.7s"
      keySplines="0.11, 0, 0.5, 0;0.5, 1, 0.89, 1;0.11, 0, 0.5, 0"
      calcMode="spline"
      fill="freeze"
      additive="sum"
    />
  </path>
  <path fill="none" stroke="currentColor" d="M530.7 6.5l28.04 84H545.3l-7.8-23.52h-37.8l-7.8 23.52h-6.33m0 0h-9.99l28-84h27.12m-25.36 44h26.88l-13.44-40.2-13.44 40.2">
    <animate begin="0.6s" attributeName="stroke-dashoffset" to="0" dur="1.5s" calcMode="paced" fill="freeze" />
    <animateTransform
      begin="0.8s"
      attributeName="transform"
      type="translate"
      values="0,0;0,70;0,65;0,70"
      dur="0.7s"
      keySplines="0.11, 0, 0.5, 0;0.5, 1, 0.89, 1;0.11, 0, 0.5, 0"
      calcMode="spline"
      fill="freeze"
      additive="sum"
    />
  </path>
  <path fill="none" stroke="currentColor" d="M630.26 90.5h-13.42V22.94h-20.18l-.12 3.12c-.91 31.23-4.07 48.79-9.59 57.99m0 0c-3.92 6.54-9.03 8.85-15.37 8.85m0 0c-2.27-.01-4.52-.3-6.72-.84m0 0l1.68-16.68m0 0c1.59.64 3.29.98 5 1 6.6 0 10.44-6.24 12-58.32l.52-11.56m0 0h46.2v84">
    <animate begin="0.7s" attributeName="stroke-dashoffset" to="0" dur="1.5s" calcMode="paced" fill="freeze" />
    <animateTransform
      begin="0.9s"
      attributeName="transform"
      type="translate"
      values="0,0;0,70;0,65;0,70"
      dur="0.7s"
      keySplines="0.11, 0, 0.5, 0;0.5, 1, 0.89, 1;0.11, 0, 0.5, 0"
      calcMode="spline"
      fill="freeze"
      additive="sum"
    />
  </path>
  <path fill="none" stroke="currentColor" d="M645.38.5h13.46m0 0l1.44 68.4m0 0h-16.34L645.38.5m-1.24 82.92c.04-4.92 3.28-8.16 8.08-8.16 4.8 0 8 3.24 8 8.16a8.04 8.04 0 11-16.08 0">
    <animate begin="0.8s" attributeName="stroke-dashoffset" to="0" dur="0.6s" calcMode="paced" fill="freeze" />
    <animateTransform
      begin="1s"
      attributeName="transform"
      type="translate"
      values="0,0;0,70;0,65;0,70"
      dur="0.7s"
      keySplines="0.11, 0, 0.5, 0;0.5, 1, 0.89, 1;0.11, 0, 0.5, 0"
      calcMode="spline"
      fill="freeze"
      additive="sum"
    />
  </path>
  <script type="text/javascript">
    <![CDATA[
      Array.from(document.querySelectorAll('#lose-heading path'))
        .forEach(path => {
          const length = path.getTotalLength();
          path.setAttribute('stroke-dashoffset', length)
          path.setAttribute('stroke-dasharray', length)
        })
    ]]>
  </script>
  </svg>
