<svg id="win-heading" xmlns="http://www.w3.org/2000/svg" xmlns:xlink="http://www.w3.org/1999/xlink" viewBox="0 0 570 110">
    <defs>
    <animateTransform
      xlink:href="#word"
      attributeName="transform"
      type="translate"
      from="0,0"
      to="15, 2"
      dur="0.5s"
      keySplines="0.33, 1, 0.68, 1"
      calcMode="spline"
      fill="freeze"
      additive="sum"
    />
    <animateTransform
      xlink:href="#word"
      attributeName="transform"
      type="scale"
      from="1, 1"
      to="0.95, 0.95"
      dur="0.5s"
      keySplines="0.33, 1, 0.68, 1"
      calcMode="spline"
      fill="freeze"
      additive="sum"
    />
  </defs>
  <g id="word" fill="none" stroke="#fff">
    <path d="M50.03 6.36L.5 6.5v84h13.4l-.02-61.58m0 0l.02-5.98h45.52m0 0V90.5H72.9v-84l-22.87-.14">
      <animate attributeName="stroke-dashoffset" to="0" dur="1.5s" calcMode="paced" fill="freeze" />
    </path>
    <path d="M182.87 13.27c14.18 8.12 23.31 20.9 23.31 35.23 0 24.48-26.64 44.4-59.52 44.4-18.88 0-37.7-4.57-48.6-14.8m.03.02c-8.08-7.59-10.95-19.2-10.95-29.62 0-24.48 26.64-44.4 59.52-44.4 13.63 0 26.6 3.6 36.64 9.34m-36.64 62.78c24.48 0 44.4-12.36 44.4-27.72s-19.92-27.84-44.4-27.84c-24.76 0-46.76 14.36-46.76 29.84s22 25.72 46.76 25.72z">
      <animate attributeName="stroke-dashoffset" to="0" dur="1.5s" calcMode="paced" fill="freeze" />
    </path>
    <path d="M279.63 40.93c9.86 4.48 13.59 12.79 13.59 22.93 0 15.6-8.52 26.64-34 26.64h-38.76v-84m0 0h64.8v16.44H233.9v14.4h25.32c8.64 0 15.34 1.29 20.4 3.6m-38.68 12h-7.04v22.08h20.88c15.12 0 23.52-2 23.52-11.52s-8.4-10.56-23.52-10.56h-13.84">
      <animate attributeName="stroke-dashoffset" to="0" dur="1.5s" calcMode="paced" fill="freeze" />
    </path>
    <path d="M369.29 14.2l.08-7.7H305.3m31.2 67.53l-17.76.03V56.5h33.6V40.1h-33.6V22.94h50.63l-.08-8.74M305.3 6.5v84h64.08V74.06l-32.88-.03">
      <animate attributeName="stroke-dashoffset" to="0" dur="1.5s" calcMode="paced" fill="freeze" />
    </path>
    <path d="M445.5 6.5v67.56h10v34.68h-14.73V90.5H394.9v18.24m0 0h-14.61V74.06h7.44c4.56-4.68 7.8-18.36 8.76-56l.41-11.56h48.6m-43.25 67.56h29.76V22.94h-22.56v3.12c-.48 22.44-3.24 37.68-7.2 48">
      <animate attributeName="stroke-dashoffset" to="0" dur="1.5s" calcMode="paced" fill="freeze" />
    </path>
    <path d="M516.77 6.5h-27.12l-28 84h16.32l1.68-4.98m0 0l6.12-18.54h37.8l7.8 23.52h13.48l-28.08-84m-11.87 3.84L491.41 50.5h26.88z">
      <animate attributeName="stroke-dashoffset" to="0" dur="1.5s" calcMode="paced" fill="freeze" />
    </path>
    <path d="M568.34 68.9L566.9.5h-13.45l-1.43 68.4zm-8.28 6.36c4.8 0 8 3.24 8 8.16a8.04 8.04 0 11-16.08 0c.03-4.92 3.27-8.16 8.07-8.16z">
      <animate attributeName="stroke-dashoffset" to="0" dur="0.6s" calcMode="paced" fill="freeze" />
    </path>
  </g>
  <script type="text/javascript">
    <![CDATA[
      Array.from(document.querySelectorAll('#win-heading path'))
        .forEach(path => {
          const length = path.getTotalLength();
          path.setAttribute('stroke-dashoffset', length)
          path.setAttribute('stroke-dasharray', length)
        })
    ]]>
  </script>
</svg>